# xmcd CD database file
#
# Track frame offsets:
#	150
#	14627
#	27392
#	39802
#	53845
#	68685
#	80585
#	92570
#	107470
#	123037
#
# Disc length: 1816 seconds
#
# Revision: 0
# Processed by: cddbd v1.5.2PL0 Copyright (c) Steve Scherf et al.
# Submitted via: CDex 1.70beta2
#
DISCID=7007160a
DTITLE=Various Artist - Jazz Standards - Essential Audition Songs For Female Vocalists - Playbacks
DYEAR=1999
DGENRE=Jazz
TTITLE0=Cry Me A River
TTITLE1=Desafinado
TTITLE2=Ev'rytime We Say Goodbye
TTITLE3=Fever
TTITLE4=It's Only A Paper Moon
TTITLE5=Mad About The Boy
TTITLE6=My Baby Just Cares For Me
TTITLE7=Stormy Weather
TTITLE8=Summertime
TTITLE9=They Can't Take That Away From Me
EXTD=YEAR: 1999
EXTT0=
EXTT1=
EXTT2=
EXTT3=
EXTT4=
EXTT5=
EXTT6=
EXTT7=
EXTT8=
EXTT9=
PLAYORDER=
